<mxfile host="app.diagrams.net" modified="2022-01-24T07:22:02.378Z" agent="5.0 (Windows NT 10.0; Win64; x64) AppleWebKit/537.36 (KHTML, like Gecko) Chrome/97.0.4692.99 Safari/537.36" etag="znWbQwyFhMi5C8w1_xGi" version="16.4.5" type="github">
  <diagram id="bapTYhmrrrZhtBllUPvY" name="Page-1">
    <mxGraphModel dx="880" dy="499" grid="1" gridSize="10" guides="1" tooltips="1" connect="1" arrows="1" fold="1" page="1" pageScale="1" pageWidth="827" pageHeight="1169" math="0" shadow="0">
      <root>
        <mxCell id="0" />
        <mxCell id="1" parent="0" />
        <mxCell id="o21O__ECsbYPNvxW8_cj-10" value="" style="edgeStyle=orthogonalEdgeStyle;rounded=0;orthogonalLoop=1;jettySize=auto;html=1;" parent="1" source="o21O__ECsbYPNvxW8_cj-1" target="o21O__ECsbYPNvxW8_cj-3" edge="1">
          <mxGeometry relative="1" as="geometry" />
        </mxCell>
        <mxCell id="o21O__ECsbYPNvxW8_cj-1" value="開始" style="ellipse;whiteSpace=wrap;html=1;" parent="1" vertex="1">
          <mxGeometry x="340" y="10" width="120" height="40" as="geometry" />
        </mxCell>
        <mxCell id="o21O__ECsbYPNvxW8_cj-11" value="" style="edgeStyle=orthogonalEdgeStyle;rounded=0;orthogonalLoop=1;jettySize=auto;html=1;" parent="1" source="o21O__ECsbYPNvxW8_cj-3" target="o21O__ECsbYPNvxW8_cj-6" edge="1">
          <mxGeometry relative="1" as="geometry" />
        </mxCell>
        <mxCell id="o21O__ECsbYPNvxW8_cj-3" value="駐車開始時間&amp;nbsp; ← リクエスト&lt;br&gt;駐車終了時間 ← リクエスト&lt;br&gt;料金ルール[]&amp;nbsp; &amp;nbsp;← リクエスト&lt;br&gt;駐車料金 ← 0" style="whiteSpace=wrap;html=1;" parent="1" vertex="1">
          <mxGeometry x="300" y="90" width="200" height="70" as="geometry" />
        </mxCell>
        <mxCell id="o21O__ECsbYPNvxW8_cj-8" value="" style="edgeStyle=orthogonalEdgeStyle;rounded=0;orthogonalLoop=1;jettySize=auto;html=1;" parent="1" source="o21O__ECsbYPNvxW8_cj-6" edge="1">
          <mxGeometry relative="1" as="geometry">
            <mxPoint x="400" y="280" as="targetPoint" />
          </mxGeometry>
        </mxCell>
        <mxCell id="o21O__ECsbYPNvxW8_cj-6" value="i ← 0" style="rounded=0;whiteSpace=wrap;html=1;" parent="1" vertex="1">
          <mxGeometry x="340" y="200" width="120" height="30" as="geometry" />
        </mxCell>
        <mxCell id="o21O__ECsbYPNvxW8_cj-14" value="" style="edgeStyle=orthogonalEdgeStyle;rounded=0;orthogonalLoop=1;jettySize=auto;html=1;entryX=0.5;entryY=0;entryDx=0;entryDy=0;" parent="1" target="VXz7A4TB8hGQp76kZLxb-12" edge="1">
          <mxGeometry relative="1" as="geometry">
            <mxPoint x="400" y="340" as="sourcePoint" />
            <mxPoint x="400" y="390" as="targetPoint" />
          </mxGeometry>
        </mxCell>
        <mxCell id="o21O__ECsbYPNvxW8_cj-16" value="" style="edgeStyle=orthogonalEdgeStyle;rounded=0;orthogonalLoop=1;jettySize=auto;html=1;" parent="1" target="o21O__ECsbYPNvxW8_cj-15" edge="1">
          <mxGeometry relative="1" as="geometry">
            <mxPoint x="282" y="320" as="sourcePoint" />
            <Array as="points">
              <mxPoint x="230" y="320" />
              <mxPoint x="230" y="320" />
            </Array>
          </mxGeometry>
        </mxCell>
        <mxCell id="VXz7A4TB8hGQp76kZLxb-5" value="" style="edgeStyle=orthogonalEdgeStyle;rounded=0;orthogonalLoop=1;jettySize=auto;html=1;" edge="1" parent="1" target="VXz7A4TB8hGQp76kZLxb-4">
          <mxGeometry relative="1" as="geometry">
            <mxPoint x="400" y="450" as="sourcePoint" />
          </mxGeometry>
        </mxCell>
        <mxCell id="o21O__ECsbYPNvxW8_cj-15" value="i ← i + 1" style="rounded=0;whiteSpace=wrap;html=1;" parent="1" vertex="1">
          <mxGeometry x="100" y="302.5" width="80" height="30" as="geometry" />
        </mxCell>
        <mxCell id="o21O__ECsbYPNvxW8_cj-17" value="" style="endArrow=classic;html=1;rounded=0;" parent="1" edge="1">
          <mxGeometry width="50" height="50" relative="1" as="geometry">
            <mxPoint x="160" y="295" as="sourcePoint" />
            <mxPoint x="400" y="250" as="targetPoint" />
            <Array as="points">
              <mxPoint x="160" y="250" />
            </Array>
          </mxGeometry>
        </mxCell>
        <mxCell id="o21O__ECsbYPNvxW8_cj-18" value="" style="endArrow=classic;html=1;rounded=0;exitX=0;exitY=0.5;exitDx=0;exitDy=0;" parent="1" source="VXz7A4TB8hGQp76kZLxb-12" edge="1">
          <mxGeometry width="50" height="50" relative="1" as="geometry">
            <mxPoint x="290" y="422.5" as="sourcePoint" />
            <mxPoint x="150" y="332.5" as="targetPoint" />
            <Array as="points">
              <mxPoint x="150" y="438" />
            </Array>
          </mxGeometry>
        </mxCell>
        <mxCell id="VXz7A4TB8hGQp76kZLxb-4" value="料金ルール[i].開始時間 &amp;gt;= 駐車開始時間、かつ料金ルール.終了時間 &amp;lt;= 駐車終了時間を満たすか？" style="whiteSpace=wrap;html=1;rounded=0;" vertex="1" parent="1">
          <mxGeometry x="300" y="525" width="200" height="60" as="geometry" />
        </mxCell>
        <mxCell id="VXz7A4TB8hGQp76kZLxb-13" value="" style="edgeStyle=orthogonalEdgeStyle;rounded=0;orthogonalLoop=1;jettySize=auto;html=1;fontSize=12;" edge="1" parent="1" source="VXz7A4TB8hGQp76kZLxb-6" target="VXz7A4TB8hGQp76kZLxb-12">
          <mxGeometry relative="1" as="geometry" />
        </mxCell>
        <mxCell id="VXz7A4TB8hGQp76kZLxb-6" value="&lt;font&gt;&lt;span style=&quot;color: rgb(0 , 0 , 0) ; font-family: &amp;#34;helvetica&amp;#34; ; font-style: normal ; font-weight: 400 ; letter-spacing: normal ; text-align: center ; text-indent: 0px ; text-transform: none ; word-spacing: 0px ; background-color: rgb(248 , 249 , 250) ; display: inline ; float: none&quot;&gt;&lt;font style=&quot;font-size: 12px&quot;&gt;料金ルール[i].,開始時間 &amp;gt;&lt;br&gt;&amp;nbsp;駐車終了時間&lt;/font&gt;&lt;/span&gt;&lt;br style=&quot;font-size: 9px&quot;&gt;&lt;/font&gt;" style="rhombus;whiteSpace=wrap;html=1;" vertex="1" parent="1">
          <mxGeometry x="280" y="280" width="240" height="75" as="geometry" />
        </mxCell>
        <mxCell id="VXz7A4TB8hGQp76kZLxb-8" value="F" style="text;html=1;align=center;verticalAlign=middle;resizable=0;points=[];autosize=1;strokeColor=none;fillColor=none;fontSize=12;" vertex="1" parent="1">
          <mxGeometry x="404" y="355" width="20" height="20" as="geometry" />
        </mxCell>
        <mxCell id="VXz7A4TB8hGQp76kZLxb-9" value="T" style="text;html=1;align=center;verticalAlign=middle;resizable=0;points=[];autosize=1;strokeColor=none;fillColor=none;fontSize=12;" vertex="1" parent="1">
          <mxGeometry x="270" y="330" width="20" height="20" as="geometry" />
        </mxCell>
        <mxCell id="VXz7A4TB8hGQp76kZLxb-12" value="&lt;font&gt;料金ルール[i].,終了時間&amp;gt;&lt;br&gt;&amp;nbsp;駐車開始時間&lt;br style=&quot;font-size: 9px&quot;&gt;&lt;/font&gt;" style="rhombus;whiteSpace=wrap;html=1;" vertex="1" parent="1">
          <mxGeometry x="280" y="400" width="240" height="75" as="geometry" />
        </mxCell>
        <mxCell id="VXz7A4TB8hGQp76kZLxb-14" value="F" style="text;html=1;align=center;verticalAlign=middle;resizable=0;points=[];autosize=1;strokeColor=none;fillColor=none;fontSize=12;" vertex="1" parent="1">
          <mxGeometry x="404" y="470" width="20" height="20" as="geometry" />
        </mxCell>
        <mxCell id="VXz7A4TB8hGQp76kZLxb-15" value="T" style="text;html=1;align=center;verticalAlign=middle;resizable=0;points=[];autosize=1;strokeColor=none;fillColor=none;fontSize=12;" vertex="1" parent="1">
          <mxGeometry x="270" y="410" width="20" height="20" as="geometry" />
        </mxCell>
      </root>
    </mxGraphModel>
  </diagram>
</mxfile>
